<?xml version="1.0" encoding="UTF-8"?>
<svg xmlns="http://www.w3.org/2000/svg" version="1.1" width="512px" height="512px"
     style="shape-rendering:geometricPrecision; text-rendering:geometricPrecision; image-rendering:optimizeQuality; fill-rule:evenodd; clip-rule:evenodd">
    <g>
        <path style="opacity:0.997" fill="#ff4a4a"
              d="M 232.5,-0.5 C 240.167,-0.5 247.833,-0.5 255.5,-0.5C 255.5,33.5 255.5,67.5 255.5,101.5C 237.497,101.333 219.497,101.5 201.5,102C 197,103.833 193.833,107 192,111.5C 191.667,137.167 191.333,162.833 191,188.5C 190.5,189 190,189.5 189.5,190C 164.167,190.333 138.833,190.667 113.5,191C 108.815,192.35 105.315,195.183 103,199.5C 102.019,237.227 102.352,274.893 104,312.5C 105.765,315.473 108.265,317.64 111.5,319C 137.542,319.176 163.542,319.676 189.5,320.5C 190.192,321.025 190.692,321.692 191,322.5C 191.333,347.833 191.667,373.167 192,398.5C 193.456,403.978 196.956,407.312 202.5,408.5C 219.992,409.497 237.659,409.83 255.5,409.5C 255.5,443.5 255.5,477.5 255.5,511.5C 247.833,511.5 240.167,511.5 232.5,511.5C 142.856,500.612 75.3562,456.279 30,378.5C 13.3053,347.029 3.1386,313.696 -0.5,278.5C -0.5,263.167 -0.5,247.833 -0.5,232.5C 10.3875,142.857 54.7208,75.3573 132.5,30C 163.971,13.3053 197.304,3.1386 232.5,-0.5 Z"/>
    </g>
    <g>
        <path style="opacity:1" fill="#e20159"
              d="M 255.5,-0.5 C 263.167,-0.5 270.833,-0.5 278.5,-0.5C 368.144,10.3879 435.644,54.7213 481,132.5C 497.695,163.971 507.861,197.304 511.5,232.5C 511.5,247.833 511.5,263.167 511.5,278.5C 500.612,368.144 456.279,435.644 378.5,481C 347.029,497.695 313.696,507.861 278.5,511.5C 270.833,511.5 263.167,511.5 255.5,511.5C 255.5,477.5 255.5,443.5 255.5,409.5C 273.503,409.667 291.503,409.5 309.5,409C 315.026,407.474 318.526,403.974 320,398.5C 320.176,372.791 320.676,347.124 321.5,321.5C 322.025,320.808 322.692,320.308 323.5,320C 349.167,319.667 374.833,319.333 400.5,319C 404.667,317.5 407.5,314.667 409,310.5C 409.667,273.833 409.667,237.167 409,200.5C 407.073,195.572 403.573,192.406 398.5,191C 373.167,190.667 347.833,190.333 322.5,190C 322,189.5 321.5,189 321,188.5C 320.667,162.833 320.333,137.167 320,111.5C 318.167,107 315,103.833 310.5,102C 292.17,101.5 273.836,101.333 255.5,101.5C 255.5,67.5 255.5,33.5 255.5,-0.5 Z"/>
    </g>
    <g>
        <path style="opacity:1" fill="#fffefe"
              d="M 255.5,101.5 C 255.5,203.833 255.5,306.167 255.5,408.5C 237.833,408.5 220.167,408.5 202.5,408.5C 196.956,407.312 193.456,403.978 192,398.5C 191.667,373.167 191.333,347.833 191,322.5C 190.692,321.692 190.192,321.025 189.5,320.5C 163.542,319.676 137.542,319.176 111.5,319C 108.265,317.64 105.765,315.473 104,312.5C 102.352,274.893 102.019,237.227 103,199.5C 105.315,195.183 108.815,192.35 113.5,191C 138.833,190.667 164.167,190.333 189.5,190C 190,189.5 190.5,189 191,188.5C 191.333,162.833 191.667,137.167 192,111.5C 193.833,107 197,103.833 201.5,102C 219.497,101.5 237.497,101.333 255.5,101.5 Z"/>
    </g>
    <g>
        <path style="opacity:1" fill="#f4f0f0"
              d="M 255.5,101.5 C 273.836,101.333 292.17,101.5 310.5,102C 315,103.833 318.167,107 320,111.5C 320.333,137.167 320.667,162.833 321,188.5C 321.5,189 322,189.5 322.5,190C 347.833,190.333 373.167,190.667 398.5,191C 403.573,192.406 407.073,195.572 409,200.5C 409.667,237.167 409.667,273.833 409,310.5C 407.5,314.667 404.667,317.5 400.5,319C 374.833,319.333 349.167,319.667 323.5,320C 322.692,320.308 322.025,320.808 321.5,321.5C 320.676,347.124 320.176,372.791 320,398.5C 318.526,403.974 315.026,407.474 309.5,409C 291.503,409.5 273.503,409.667 255.5,409.5C 237.659,409.83 219.992,409.497 202.5,408.5C 220.167,408.5 237.833,408.5 255.5,408.5C 255.5,306.167 255.5,203.833 255.5,101.5 Z"/>
    </g>
</svg>
